<?xml version="1.0" encoding="UTF-8" standalone="no"?>
<svg
   xmlns:dc="http://purl.org/dc/elements/1.1/"
   xmlns:cc="http://creativecommons.org/ns#"
   xmlns:rdf="http://www.w3.org/1999/02/22-rdf-syntax-ns#"
   xmlns:svg="http://www.w3.org/2000/svg"
   xmlns="http://www.w3.org/2000/svg"
   xmlns:sodipodi="http://sodipodi.sourceforge.net/DTD/sodipodi-0.dtd"
   xmlns:inkscape="http://www.inkscape.org/namespaces/inkscape"
   width="72px"
   height="69px"
   viewBox="90 80 170 237"
   version="1.1"
   id="svg8"
   inkscape:version="1.0.2-2 (e86c870879, 2021-01-15)"
   sodipodi:docname="ico-dj.svg">
  <defs
     id="defs2" />
  <sodipodi:namedview
     id="base"
     pagecolor="#ffffff"
     bordercolor="#666666"
     borderopacity="1.0"
     inkscape:pageopacity="0.0"
     inkscape:pageshadow="2"
     inkscape:zoom="0.35"
     inkscape:cx="200"
     inkscape:cy="560"
     inkscape:document-units="mm"
     inkscape:current-layer="layer1"
     inkscape:document-rotation="0"
     showgrid="false"
     inkscape:window-width="1258"
     inkscape:window-height="1050"
     inkscape:window-x="2179"
     inkscape:window-y="95"
     inkscape:window-maximized="0" />
  <metadata
     id="metadata5">
    <rdf:RDF>
      <cc:Work
         rdf:about="">
        <dc:format>image/svg+xml</dc:format>
        <dc:type
           rdf:resource="http://purl.org/dc/dcmitype/StillImage" />
        <dc:title></dc:title>
      </cc:Work>
    </rdf:RDF>
  </metadata>
  <g
     inkscape:label="Capa 1"
     inkscape:groupmode="layer"
     id="layer1">
    <g
       id="g845"
       transform="matrix(0.26458333,0,0,0.26458333,51.707098,89.504763)"
       style="fill:#029ee2;fill-opacity:1">
      <path
         d="m 507.959,125.941 c -4.712,-10.511 -13.209,-18.599 -23.925,-22.775 -19.338,-7.534 -46.345,-1.554 -60.406,29.176 -2.009,2.427 -3.903,4.549 -5.593,6.441 -8.167,9.147 -14.617,16.371 -9.001,32.821 0.497,1.438 4.508,16.701 5.14,18.979 l -35.423,78.704 -80.298,0.497 v -14.147 c 8.825,-5.601 16.778,-12.138 23.363,-19.316 11.557,-12.598 18.47,-26.448 20.304,-40.454 h 14.084 c 11.297,0 20.488,-9.191 20.488,-20.488 v -38.562 c 0,-0.003 0,-0.005 0,-0.008 C 376.683,98.54 363.014,65.789 337.166,42.1 313.913,20.748 282.84,8.989 249.671,8.989 c -33.169,0 -64.243,11.759 -87.492,33.107 -25.239,23.132 -38.859,54.898 -39.5,92.001 -0.119,0.893 -0.203,1.797 -0.203,2.721 v 35.379 c 0,11.297 9.178,20.488 20.458,20.488 h 13.784 c 1.138,15.085 8.194,30.085 20.618,43.634 6.823,7.442 15.111,14.2 24.325,19.935 v 13.577 h -13.343 c -30.433,0 -60.487,11.06 -84.623,31.143 C 80.651,320.147 65.71,345.542 61.11,373.072 H 44.254 c -11.517,0 -20.888,9.371 -20.888,20.889 v 18.905 H 12.746 C 5.718,412.866 0,418.585 0,425.613 v 64.652 c 0,7.028 5.718,12.746 12.746,12.746 h 472.501 c 7.044,0 12.775,-5.718 12.775,-12.746 v -64.652 c 0,-7.028 -5.731,-12.746 -12.775,-12.746 h -10.619 v -18.905 c 0,-11.518 -9.371,-20.889 -20.888,-20.889 h -65.132 l 35.72,-21.761 c 1.312,-0.799 2.348,-1.983 2.965,-3.39 l 20.441,-46.56 c 1.665,-3.793 -0.06,-8.217 -3.852,-9.882 -3.791,-1.665 -8.217,0.06 -9.882,3.852 l -19.492,44.399 -54.73,33.343 h -16.845 c -11.517,0 -20.888,9.371 -20.888,20.889 v 18.905 H 175.95 v -18.905 c 0,-8.873 -5.57,-16.451 -13.389,-19.473 v -19.289 c 0,-4.142 -3.357,-7.5 -7.5,-7.5 -4.143,0 -7.5,3.358 -7.5,7.5 v 17.873 H 76.357 c 9.663,-49.36 58.081,-88.242 111.961,-88.242 h 13.844 c 3.366,25.414 23.564,45.012 47.91,45.012 24.345,0 44.539,-19.62 47.886,-45.055 l 85.703,-0.531 c 2.934,-0.019 5.588,-1.746 6.792,-4.422 l 35.705,-79.33 42.862,15.049 -20.312,46.261 c -1.665,3.792 0.06,8.217 3.852,9.882 3.795,1.665 8.218,-0.06 9.883,-3.852 0,0 46.109,-102.915 46.191,-103.157 4.707,-13.865 4.474,-27.263 -0.675,-38.748 z m -170.915,268.02 c 0,-3.247 2.642,-5.889 5.889,-5.889 H 453.74 c 3.247,0 5.889,2.642 5.889,5.889 v 18.905 H 337.044 Z m 145.979,33.905 v 60.145 H 363.35 l -8.076,-26.236 c -3.166,-10.037 -10.328,-11.121 -13.26,-11.121 h -71.788 c -4.143,0 -7.5,3.358 -7.5,7.5 0,4.142 3.357,7.5 7.5,7.5 h 70.522 c 0.064,0.162 0.134,0.355 0.206,0.584 l 6.702,21.773 H 150.338 l 6.686,-21.723 c 0.079,-0.251 0.154,-0.46 0.224,-0.634 h 73.959 c 4.143,0 7.5,-3.358 7.5,-7.5 0,-4.142 -3.357,-7.5 -7.5,-7.5 h -75.229 c -2.932,0 -10.093,1.083 -13.274,11.171 l -8.061,26.186 H 15 V 427.866 Z M 155.062,388.072 c 3.247,0 5.889,2.642 5.889,5.889 v 18.905 H 38.366 v -18.905 c 0,-3.247 2.642,-5.889 5.889,-5.889 z M 361.694,175.379 c 0,2.975 -2.514,5.488 -5.488,5.488 h -13.572 v -40.579 c 0,-0.009 0,-0.017 0,-0.026 0,-0.001 0,-0.002 0,-0.003 0,-10e-4 0,-0.003 0,-0.004 0.046,-3.012 -0.041,-5.976 -0.236,-8.896 h 13.809 c 3.026,0 5.488,2.449 5.488,5.459 v 38.561 z M 156.535,140.291 v 37.393 h -13.601 c -3.01,0 -5.458,-2.462 -5.458,-5.488 v -35.379 c 0,-3.01 2.448,-5.459 5.458,-5.459 h 13.833 c -0.195,2.933 -0.28,5.909 -0.232,8.933 z m -13.601,-23.932 c -1.295,0 -2.557,0.134 -3.785,0.366 3.135,-20.542 11.935,-44.112 33.17,-63.575 20.479,-18.804 47.951,-29.16 77.353,-29.16 29.402,0 56.872,10.356 77.356,29.165 21.243,19.469 30.039,43.052 33.169,63.601 -1.292,-0.256 -2.625,-0.396 -3.991,-0.396 H 340.25 C 336.706,100.517 329.264,86.495 318.175,75.062 301.044,57.4 276.084,47.049 249.694,46.664 c -0.072,-0.001 -0.146,-0.001 -0.219,0 -26.413,0.385 -51.385,10.741 -68.515,28.411 -11.081,11.431 -18.516,25.448 -22.053,41.285 h -15.973 z m 118.482,24.684 c -5.354,-0.769 -12.929,-2.658 -21.871,-6.346 -15.028,-6.198 -26.281,-14.409 -29.368,-21.427 -1.305,-2.966 -4.371,-4.765 -7.589,-4.445 -3.225,0.312 -5.884,2.66 -6.594,5.821 -3.056,13.601 -11.489,15.229 -24.02,14.937 1.711,-17.295 8.429,-32.386 19.755,-44.069 14.354,-14.807 35.437,-23.497 57.855,-23.852 22.396,0.354 43.467,9.041 57.823,23.841 11.939,12.31 18.783,28.397 20.028,46.867 -24.825,-2.183 -45.684,-13.729 -50.759,-18.803 -2.965,-2.963 -7.63,-3.214 -11.094,-0.599 -5.308,4.007 -9.079,16.448 -4.166,28.075 z m 22.039,136.288 c 0,20.684 -14.975,37.512 -33.382,37.512 -18.424,0 -33.412,-16.828 -33.412,-37.512 v -13.045 c 2.912,1.328 5.873,2.565 8.883,3.681 8.862,3.27 16.501,4.793 24.042,4.793 7.553,0 15.185,-1.524 24.023,-4.797 3.341,-1.239 6.627,-2.619 9.847,-4.118 v 13.486 z m -15.059,-23.433 c -7.115,2.635 -13.093,3.863 -18.811,3.863 -5.713,0 -11.702,-1.228 -18.838,-3.862 -34.863,-12.925 -59.212,-39.873 -59.212,-65.532 v -43.783 c 9.853,0.252 24.913,-0.545 33.656,-13.468 10.499,9.958 26.815,17.52 40.167,21.578 6.409,1.947 14.167,3.747 20.941,3.747 4.275,0 8.16,-0.717 11.066,-2.565 2.195,-1.392 3.602,-3.523 3.96,-6.002 0.602,-4.169 -1.936,-7.069 -3.617,-8.988 -0.703,-0.803 -1.43,-1.633 -1.817,-2.331 -1.181,-2.122 -1.646,-4.271 -1.73,-6.175 12.094,7.619 32.28,15.42 53.473,17.04 v 40.947 c 0,25.653 -24.36,52.6 -59.238,65.531 z m 226.152,-94.385 -19.376,42.304 -46.876,-16.459 c -0.546,-2.009 -1.184,-4.436 -1.813,-6.83 -1.609,-6.125 -2.633,-9.977 -3.26,-11.794 -2.775,-8.129 -1.606,-9.439 6.002,-17.961 1.967,-2.203 4.196,-4.699 6.645,-7.703 0.425,-0.521 0.778,-1.097 1.05,-1.712 10.005,-22.664 28.138,-27.488 41.668,-22.217 13.271,5.173 23.308,20.265 15.96,42.372 z"
         id="path833"
         style="fill:#029ee2;fill-opacity:1" />
      <path
         d="m 212.228,169.37 c -4.143,0 -7.5,3.358 -7.5,7.5 v 5.562 c 0,4.142 3.357,7.5 7.5,7.5 4.143,0 7.5,-3.358 7.5,-7.5 v -5.562 c 0,-4.142 -3.358,-7.5 -7.5,-7.5 z"
         id="path835"
         style="fill:#029ee2;fill-opacity:1" />
      <path
         d="m 286.482,169.37 c -4.143,0 -7.5,3.358 -7.5,7.5 v 5.562 c 0,4.142 3.357,7.5 7.5,7.5 4.143,0 7.5,-3.358 7.5,-7.5 v -5.562 c 0,-4.142 -3.358,-7.5 -7.5,-7.5 z"
         id="path837"
         style="fill:#029ee2;fill-opacity:1" />
      <path
         d="m 259.871,214.455 -9.799,4.353 -9.8,-4.353 c -3.786,-1.682 -8.217,0.024 -9.899,3.81 -1.682,3.785 0.024,8.217 3.81,9.898 l 12.787,5.68 c 1.967,0.843 4.174,0.903 6.148,0.026 l 12.844,-5.705 c 3.785,-1.682 5.491,-6.113 3.81,-9.899 -1.683,-3.786 -6.116,-5.492 -9.901,-3.81 z"
         id="path839"
         style="fill:#029ee2;fill-opacity:1" />
      <path
         d="m 62.717,468.033 h 32.425 c 4.143,0 7.5,-3.358 7.5,-7.5 0,-4.142 -3.357,-7.5 -7.5,-7.5 H 62.717 c -4.143,0 -7.5,3.358 -7.5,7.5 0,4.142 3.357,7.5 7.5,7.5 z"
         id="path841"
         style="fill:#029ee2;fill-opacity:1" />
      <path
         d="m 402.852,468.033 h 32.424 c 4.143,0 7.5,-3.358 7.5,-7.5 0,-4.142 -3.357,-7.5 -7.5,-7.5 h -32.424 c -4.143,0 -7.5,3.358 -7.5,7.5 0,4.142 3.357,7.5 7.5,7.5 z"
         id="path843"
         style="fill:#029ee2;fill-opacity:1" />
    </g>
  </g>
</svg>
